{
  "asset": { "version": "2.0", "generator": "AETHER instancing fixture" },
  "buffers": [{
    "byteLength": 42,
    "uri": "data:application/octet-stream;base64,"
  }],
  "bufferViews": [
    { "buffer": 0, "byteOffset": 0, "byteLength": 36, "target": 34962 },
    { "buffer": 0, "byteOffset": 36, "byteLength": 6, "target": 34963 }
  ],
  "accessors": [
    { "bufferView": 0, "componentType": 5126, "count": 3, "type": "VEC3",
      "min": [-0.5, -0.5, 0.0], "max": [0.5, 0.5, 0.0] },
    { "bufferView": 1, "componentType": 5123, "count": 3, "type": "SCALAR" }
  ],
  "meshes": [{
    "name": "Shared Triangle",
    "primitives": [{ "attributes": { "POSITION": 0 }, "indices": 1 }]
  }],
  "nodes": [
    { "name": "Right", "mesh": 0, "translation": [2, 0, 0] },
    { "name": "Parent", "translation": [-1, 1, 0], "children": [2] },
    { "name": "Nested", "mesh": 0, "translation": [0, 2, 0] },
    { "name": "Mirrored", "mesh": 0, "translation": [0, 0, -2], "scale": [-1, 1, 1] }
  ],
  "scenes": [{ "nodes": [0, 1, 3] }],
  "scene": 0
}
