{
  "asset": { "version": "2.0", "generator": "AETHER morph fixture" },
  "buffers": [{
    "byteLength": 80,
    "uri": "data:application/octet-stream;base64,"
  }],
  "bufferViews": [
    { "buffer": 0, "byteOffset": 0, "byteLength": 36, "target": 34962 },
    { "buffer": 0, "byteOffset": 36, "byteLength": 6, "target": 34963 },
    { "buffer": 0, "byteOffset": 44, "byteLength": 36, "target": 34962 }
  ],
  "accessors": [
    { "bufferView": 0, "componentType": 5126, "count": 3, "type": "VEC3",
      "min": [-0.5, -0.5, 0.0], "max": [0.5, 0.5, 0.0] },
    { "bufferView": 1, "componentType": 5123, "count": 3, "type": "SCALAR" },
    { "bufferView": 2, "componentType": 5126, "count": 3, "type": "VEC3",
      "min": [0.0, 0.0, 0.0], "max": [0.0, 1.0, 0.0] }
  ],
  "meshes": [{
    "name": "Morphed Triangle",
    "weights": [0.5],
    "primitives": [{
      "attributes": { "POSITION": 0 }, "indices": 1,
      "targets": [{ "POSITION": 2 }]
    }]
  }],
  "nodes": [{ "name": "Morph Override", "mesh": 0, "weights": [0.75] }],
  "scenes": [{ "nodes": [0] }],
  "scene": 0
}
