{
  "asset": { "version": "2.0", "generator": "AETHER skin fixture" },
  "buffers": [{
    "byteLength": 168,
    "uri": "data:application/octet-stream;base64,"
  }],
  "bufferViews": [
    { "buffer": 0, "byteOffset": 0, "byteLength": 36, "target": 34962 },
    { "buffer": 0, "byteOffset": 36, "byteLength": 6, "target": 34963 },
    { "buffer": 0, "byteOffset": 44, "byteLength": 12, "target": 34962 },
    { "buffer": 0, "byteOffset": 56, "byteLength": 48, "target": 34962 },
    { "buffer": 0, "byteOffset": 104, "byteLength": 64 }
  ],
  "accessors": [
    { "bufferView": 0, "componentType": 5126, "count": 3, "type": "VEC3",
      "min": [-0.5, -0.5, 0.0], "max": [0.5, 0.5, 0.0] },
    { "bufferView": 1, "componentType": 5123, "count": 3, "type": "SCALAR" },
    { "bufferView": 2, "componentType": 5121, "count": 3, "type": "VEC4" },
    { "bufferView": 3, "componentType": 5126, "count": 3, "type": "VEC4" },
    { "bufferView": 4, "componentType": 5126, "count": 1, "type": "MAT4" }
  ],
  "meshes": [{
    "name": "Skinned Triangle",
    "primitives": [{
      "attributes": { "POSITION": 0, "JOINTS_0": 2, "WEIGHTS_0": 3 }, "indices": 1
    }]
  }],
  "nodes": [
    { "name": "Root Joint" },
    { "name": "Skinned Mesh", "mesh": 0, "skin": 0 }
  ],
  "skins": [{ "name": "One Joint", "inverseBindMatrices": 4, "skeleton": 0, "joints": [0] }],
  "scenes": [{ "nodes": [0, 1] }],
  "scene": 0
}
