{
  "asset": { "version": "2.0", "generator": "AETHER textured fixture" },
  "buffers": [{
    "byteLength": 66,
    "uri": "data:application/octet-stream;base64,"
  }],
  "bufferViews": [
    { "buffer": 0, "byteOffset": 0, "byteLength": 36, "target": 34962 },
    { "buffer": 0, "byteOffset": 36, "byteLength": 24, "target": 34962 },
    { "buffer": 0, "byteOffset": 60, "byteLength": 6, "target": 34963 }
  ],
  "accessors": [
    { "bufferView": 0, "componentType": 5126, "count": 3, "type": "VEC3",
      "min": [-0.5, -0.5, 0.0], "max": [0.5, 0.5, 0.0] },
    { "bufferView": 1, "componentType": 5126, "count": 3, "type": "VEC2" },
    { "bufferView": 2, "componentType": 5123, "count": 3, "type": "SCALAR" }
  ],
  "images": [{
    "name": "Red Pixel",
    "uri": "data:image/png;base64,"
  }],
  "samplers": [{ "magFilter": 9728, "minFilter": 9987, "wrapS": 33071, "wrapT": 33648 }],
  "textures": [{ "source": 0, "sampler": 0 }],
  "materials": [{
    "name": "Textured Material",
    "pbrMetallicRoughness": { "baseColorTexture": { "index": 0 } }
  }],
  "meshes": [{
    "name": "Textured Triangle",
    "primitives": [{
      "attributes": { "POSITION": 0, "TEXCOORD_0": 1 }, "indices": 2, "material": 0
    }]
  }],
  "nodes": [{ "mesh": 0 }],
  "scenes": [{ "nodes": [0] }],
  "scene": 0
}
